<svg width="209" height="47" viewBox="0 0 209 47" fill="none" xmlns="http://www.w3.org/2000/svg">
<path d="M0.100442 18.3888C0.100442 14.1797 3.75827 12.0254 8.067 12.0254C9.67011 12.0254 11.4741 12.3259 12.4263 12.8273C12.6763 12.9776 12.7767 13.328 12.8273 14.0303C12.8771 14.4811 12.8771 15.0323 12.8771 15.7836V17.0862C12.8273 17.8882 12.7269 18.339 12.2753 18.339C11.6244 18.339 11.5239 17.3868 10.722 15.684C10.1209 14.3814 9.26914 13.3786 7.66602 13.3786C5.71175 13.3786 4.15846 14.731 4.15846 16.5856C4.15846 18.9907 6.56353 20.143 9.06825 21.5958C11.5231 23.0487 14.0793 24.8029 14.0793 28.4101C14.0793 33.2708 10.1715 35.876 5.46104 35.876C3.95836 35.876 2.50551 35.6253 1.50268 35.2749C1.15232 35.1745 0.801163 35.0748 0.551245 34.874C0.300535 34.7237 0.100442 34.473 0.0498256 33.4709C0 32.7694 0 31.8172 0 30.5146C0 28.5105 0.150268 27.9593 0.650896 27.9593C1.3532 27.9593 1.40223 28.7612 2.15436 30.8658C2.9057 32.82 4.05802 34.4738 6.11273 34.4738C8.36753 34.4738 9.97065 32.9703 9.97065 30.7155C9.97065 27.7592 7.6154 26.4566 5.31077 25.0536C2.80605 23.6498 0.100442 22.0466 0.100442 18.4386V18.3888Z" fill="white"/>
<path d="M21.7462 30.3643C21.7462 32.3186 22.2975 33.1704 23.5004 33.1704C24.4519 33.1704 25.0537 32.5195 25.4547 31.9176C25.9055 31.3166 26.206 30.7147 26.607 30.7147C26.9075 30.7147 27.1084 30.865 27.1084 31.2161C27.1084 31.9674 25.7552 35.876 21.8475 35.876C20.3946 35.876 19.2921 35.475 18.54 34.6731C17.7381 33.7707 17.4375 32.5685 17.4375 30.6649V15.2324C17.4375 14.6811 17.1876 14.481 16.8357 14.4304C16.4853 14.3806 16.0337 14.3806 15.6327 14.3806C15.1827 14.3806 14.7817 14.3308 14.7817 13.7795C14.7817 13.4292 15.0823 13.078 15.7332 12.477C17.2865 11.274 18.589 9.92162 20.2934 6.91468C20.7442 6.0629 20.8945 5.76237 21.2448 5.76237C21.5952 5.76237 21.7462 5.96246 21.7462 6.81503V11.5753C21.7462 12.3267 21.997 12.628 22.7491 12.628H25.4547C26.3065 12.628 26.5066 12.8281 26.5066 13.5296C26.5066 14.3316 26.3065 14.5823 25.3542 14.5823C24.5025 14.5823 23.6009 14.5325 22.7491 14.5325C21.9471 14.5325 21.7462 14.7325 21.7462 15.6349V30.3659V30.3643Z" fill="white"/>
<path d="M30.0141 18.1887C30.0141 16.5856 29.6638 16.1846 28.1105 15.9339C27.5094 15.8343 27.2587 15.684 27.2587 15.3328C27.2587 14.882 27.7095 14.6811 28.8618 14.3308C30.4649 13.88 31.8688 13.1279 32.9206 12.5268C33.422 12.2263 33.7226 12.0262 33.9235 12.0262C34.224 12.0262 34.3244 12.2263 34.3244 12.7775V31.2667C34.3244 32.9703 34.3735 33.7216 36.0778 34.0222C36.9802 34.2223 37.3306 34.3227 37.3306 34.8241C37.3306 35.2749 37.1305 35.4252 36.5286 35.4252C35.4768 35.4252 34.3735 35.2251 32.1693 35.2251C29.7642 35.2251 28.7123 35.4252 27.7601 35.4252C27.3591 35.4252 27.0088 35.2251 27.0088 34.8241C27.0088 34.3227 27.3591 34.1724 28.0108 34.0222C29.8148 33.7715 30.0149 33.4211 30.0149 31.417L30.0141 18.1887ZM32.1693 8.86896C30.8667 8.86896 29.6638 7.81629 29.6638 5.91264C29.6638 4.05881 30.7663 2.9065 32.2191 2.9065C33.6214 2.9065 34.7246 4.00899 34.7246 5.86281C34.7246 7.81708 33.6214 8.86975 32.2191 8.86975H32.1693V8.86896Z" fill="white"/>
<path d="M41.0887 5.41121C41.0887 3.95836 40.8878 3.65783 39.5346 3.50677C38.6836 3.30668 38.3823 3.25685 38.3823 2.80526C38.3823 2.40428 38.6836 2.25401 39.3852 2.05392C41.3893 1.50268 42.8421 1.00126 43.7943 0.500628C44.4452 0.200093 44.7964 0 45.0471 0C45.3476 0 45.4481 0.249919 45.4481 1.00205V31.867C45.4481 33.3697 45.849 33.671 47.5518 34.0214C48.1031 34.1716 48.6045 34.2721 48.6045 34.7727C48.6045 35.2235 48.2541 35.4244 47.8025 35.4244C47.1508 35.4244 46.3489 35.2243 43.3427 35.2243C40.4869 35.2243 39.6351 35.4244 38.9336 35.4244C38.5832 35.4244 38.0818 35.2741 38.0818 34.7727C38.0818 34.3219 38.633 34.0712 39.0846 34.0214C40.8878 33.8213 41.0887 33.2194 41.0887 31.5159V5.41121Z" fill="white"/>
<path d="M52.2622 5.41121C52.2622 3.95836 52.0622 3.65783 50.709 3.50677C49.8572 3.30668 49.5566 3.25685 49.5566 2.80526C49.5566 2.40428 49.8572 2.25401 50.5587 2.05392C52.5628 1.50268 54.0164 1.00126 54.9679 0.500628C55.6195 0.200093 55.9707 0 56.2206 0C56.5211 0 56.6216 0.249919 56.6216 1.00205V31.867C56.6216 33.3697 57.0226 33.671 58.7261 34.0214C59.2774 34.1716 59.778 34.2721 59.778 34.7727C59.778 35.2235 59.4276 35.4244 58.976 35.4244C58.3251 35.4244 57.5232 35.2243 54.5163 35.2243C51.6612 35.2243 50.8086 35.4244 50.1071 35.4244C49.7567 35.4244 49.2561 35.2741 49.2561 34.7727C49.2561 34.3219 49.8066 34.0712 50.2582 34.0214C52.0622 33.8213 52.2622 33.2194 52.2622 31.5159V5.41121Z" fill="white"/>
<path d="M65.6915 32.1177C65.6915 33.8213 64.7401 35.7257 62.8855 35.7257C61.5837 35.7257 60.8315 34.7229 60.8315 33.3705C60.8315 31.6669 61.7331 29.7127 63.6376 29.7127C64.8896 29.7127 65.6915 30.7147 65.6915 32.0679V32.1177Z" fill="white"/>
<path d="M91.3462 18.7392C91.3462 22.5971 89.6426 26.9066 87.1379 30.1136C84.6324 33.3207 81.2244 35.5249 77.7177 35.5249C76.2648 35.5249 74.9116 35.1745 73.9104 34.3219C73.3591 36.0255 72.8071 38.0296 72.4069 39.6335C72.0059 41.1868 71.6556 42.54 71.6556 43.0406C71.6556 44.0933 72.4069 44.393 73.2587 44.5441C74.3113 44.7442 75.4637 44.7442 75.4637 45.3958C75.4637 45.8467 75.213 45.9969 74.411 45.9969C73.7095 45.9969 72.8079 45.9471 71.8565 45.8973C70.9541 45.8474 70.0018 45.7968 69.101 45.7968C67.0969 45.7968 64.8919 46.0475 63.689 46.0475C63.0381 46.0475 62.7866 45.8973 62.7866 45.4963C62.7866 44.8952 63.288 44.7442 64.4902 44.6445C66.4444 44.4942 66.6952 44.0434 67.5968 40.9867L75.4138 15.132C75.5143 14.8314 75.5143 14.6812 75.0129 14.8314C73.3591 15.4325 72.2068 16.0842 71.7054 16.0842C71.4555 16.0842 71.3044 15.9837 71.3044 15.733C71.3044 15.3827 71.7552 15.0315 72.3073 14.6804C73.2089 14.1797 74.4616 13.6783 75.5633 13.2781C75.8646 13.1777 75.9643 13.0274 76.0647 12.7269L77.6679 7.66683C77.7683 7.21602 77.9684 7.06497 78.3694 6.96531C78.7703 6.91549 79.3216 6.91549 79.9725 6.91549H81.4261C81.7267 6.91549 81.8271 7.11558 81.8271 7.31647C81.8271 7.41691 81.7267 7.71744 81.6768 8.06859C81.3763 9.12047 80.8251 10.9245 80.5245 12.1772C81.1754 12.027 81.7773 11.9771 82.3783 11.9265C83.03 11.8767 83.6311 11.8767 84.233 11.8767C88.3416 11.8767 91.3477 13.9314 91.3477 18.6909V18.7408L91.3462 18.7392ZM82.7777 13.3786C81.6254 13.3786 80.674 13.5787 80.0721 13.7796C79.6712 15.0821 79.2702 16.3349 78.9198 17.4872C77.3665 22.7482 76.3645 26.1054 75.663 28.4109C75.0619 30.5154 74.861 31.3672 74.861 32.1185C74.861 33.6718 76.0639 34.3227 77.3665 34.3227C79.7716 34.3227 82.0762 31.9176 83.7798 28.8111C85.534 25.5036 86.8358 21.0446 86.8358 17.537C86.8358 14.4304 85.3331 13.3786 82.8276 13.3786H82.7777Z" fill="white"/>
<path d="M110.688 14.8314C110.688 17.5868 109.034 19.7412 107.481 19.7412C106.829 19.7412 106.378 19.4905 106.278 18.8396C106.077 17.9372 106.528 17.4366 106.528 16.5342C106.478 15.9331 106.378 15.6824 105.926 15.6824C105.224 15.6824 103.671 17.9372 102.119 21.0438C100.616 23.9495 98.411 29.2112 96.9582 33.6204C96.4069 35.0732 96.4069 35.2235 94.6535 35.2235C92.8495 35.2235 92.4984 35.2235 92.4984 34.8732C92.4984 34.6224 92.6487 34.1218 92.7989 33.4701C94.1521 28.8103 95.5544 23.6996 96.8071 18.9891C97.008 18.1871 97.409 16.7343 97.409 16.0834C97.409 15.6824 97.3085 15.3819 96.9076 15.3819C96.2567 15.3819 95.3543 16.3341 94.3522 17.8866C93.8018 18.789 93.5503 19.3901 93.3003 19.8409C93.0995 20.2917 92.95 20.5424 92.5988 20.5424C92.2975 20.5424 92.0974 20.3423 92.0974 20.0417C92.0974 19.5403 93.0995 17.5362 94.3016 15.8327C95.6042 14.0287 97.5086 12.1748 99.3126 12.1748C100.765 12.1748 101.517 13.1271 101.517 14.6796C101.517 16.0328 100.765 18.6379 99.5625 23.2978L99.663 23.3975C102.77 16.633 105.676 11.9732 108.532 11.9732C110.035 11.9732 110.687 13.1255 110.687 14.7792V14.829L110.688 14.8314Z" fill="white"/>
<path d="M106.981 31.1157C106.981 26.8568 109.336 22.0973 112.242 18.5391C115.298 14.9311 119.106 12.3259 122.363 12.3259C124.718 12.3259 125.57 13.5787 125.821 13.5787C126.021 13.5787 126.271 12.8273 126.472 12.3757C126.672 11.9249 126.922 11.8245 127.523 11.7747H129.679C130.129 11.7747 130.48 11.8743 130.48 12.3259C130.48 12.5766 130.33 13.0772 130.18 13.4782C128.726 18.0883 127.123 22.9482 125.57 27.6081C124.868 29.8131 124.718 30.6143 124.718 31.1157C124.718 31.6171 124.969 31.8172 125.269 31.8172C125.871 31.8172 126.973 30.6143 128.325 28.4599C129.378 26.8568 129.378 26.3047 129.829 26.3047C130.129 26.3047 130.28 26.455 130.28 26.7556C130.28 27.6073 128.926 29.9626 127.424 31.8662C125.821 33.8703 123.565 35.8744 121.611 35.8744C120.308 35.8744 119.907 35.0226 119.907 33.97C119.907 33.168 120.108 32.2166 120.458 31.1141C120.96 29.2104 121.711 26.9058 122.614 24.0998L122.513 24.0499C120.458 27.3566 114.847 35.8752 110.488 35.8752C107.932 35.8752 106.98 33.9209 106.98 31.1647V31.1149L106.981 31.1157ZM125.118 15.6832C125.118 14.3806 124.217 13.6791 122.964 13.6791C120.609 13.6791 117.853 16.3847 115.648 19.8417C113.344 23.5991 111.589 27.7086 111.589 30.1136C111.589 31.266 112.091 32.1676 113.143 32.1676C114.997 32.1676 118.103 28.6102 120.458 25.1524C122.763 21.7951 125.118 17.4864 125.118 15.7322V15.6832Z" fill="white"/>
<path d="M149.772 15.3827C149.772 16.6354 148.82 17.7379 147.267 17.7379C146.465 17.7379 145.714 17.3875 145.412 16.535C145.162 15.8335 145.162 15.332 145.011 14.6313C144.862 13.8294 144.711 13.2789 143.808 13.2789C142.406 13.2789 140.452 15.0821 138.948 17.6881C137.245 20.3937 135.992 24.2018 135.992 28.0099C135.992 31.1165 137.394 33.0201 139.75 33.0201C141.804 33.0201 143.858 31.1157 145.262 29.0617C146.414 27.5085 146.916 26.2557 147.416 26.2059C147.667 26.2059 147.867 26.3561 147.867 26.7571C147.867 27.2585 147.366 28.3104 146.815 29.3125C145.162 32.1185 141.905 35.876 137.696 35.876C133.688 35.876 131.383 32.7694 131.383 27.7584C131.383 23.5493 133.037 19.5909 135.542 16.6852C138.048 13.8294 141.455 11.8751 144.961 11.8751C147.718 11.8751 149.772 13.078 149.772 15.3328V15.3827Z" fill="white"/>
<path d="M148.922 33.3705C148.922 32.1675 149.323 30.5146 150.125 27.809C151.077 24.7522 152.73 19.6922 154.534 14.1805H151.577C151.277 14.1805 151.127 14.0809 151.176 13.8302C151.226 13.5296 151.327 13.2291 151.427 12.9784C151.527 12.7277 151.677 12.6778 151.978 12.6778H155.034L157.138 6.21475C157.339 5.71333 157.439 5.56307 157.99 5.46263C158.341 5.4128 158.842 5.4128 159.293 5.4128H160.746C161.297 5.4128 161.448 5.51245 161.448 5.76316C161.448 6.01387 161.297 6.46467 160.997 7.41689C160.647 8.66886 160.045 10.5733 159.394 12.6778H163.052C163.402 12.6778 163.502 12.7277 163.453 13.029C163.403 13.2797 163.302 13.5296 163.202 13.8309C163.153 14.1315 162.952 14.1813 162.651 14.1813H158.893C157.09 20.0441 155.686 24.0523 154.734 26.958C153.883 29.4129 153.482 30.6158 153.482 31.3173C153.482 31.818 153.782 32.1193 154.133 32.1193C154.784 32.1193 155.686 31.0666 156.888 29.5133C158.391 27.5591 158.542 26.4574 159.093 26.4574C159.343 26.4574 159.544 26.6575 159.544 26.958C159.544 27.4594 158.742 28.9123 157.74 30.4157C156.086 32.771 153.331 35.7273 150.976 35.7273C149.573 35.7273 148.921 34.8755 148.921 33.4219V33.3721L148.922 33.3705Z" fill="white"/>
<path d="M171.619 14.0801C171.619 14.8314 171.218 16.4852 170.668 18.0883C169.465 21.5958 168.162 25.2537 166.909 28.7604C166.508 30.0132 166.258 30.7645 166.258 31.2659C166.258 31.6163 166.459 31.9168 166.86 31.9168C167.561 31.9168 168.513 30.865 170.067 28.3088C170.869 26.9564 170.969 26.2549 171.47 26.2549C171.77 26.2549 171.92 26.4052 171.92 26.7057C171.92 27.257 171.069 28.9605 170.066 30.5138C168.513 32.9189 166.007 35.7249 163.653 35.7249C162.25 35.7249 161.698 34.6723 161.698 33.3697C161.698 32.2174 162.149 30.6143 162.801 28.7596C163.853 25.6531 164.956 22.4966 166.008 19.5403C166.71 17.5861 167.011 16.6845 167.011 16.0834C167.011 15.6824 166.86 15.3819 166.459 15.3819C165.858 15.3819 165.207 16.0336 164.104 17.4864C162.351 19.7412 162.301 20.5432 161.749 20.5432C161.499 20.5432 161.348 20.4435 161.348 20.1422C161.348 19.5909 162.4 17.7371 163.552 16.1838C165.155 14.1291 167.511 11.8743 169.615 11.8743C170.868 11.8743 171.619 12.5758 171.619 14.0295V14.0801ZM174.075 5.06008C174.075 6.71381 172.822 8.66808 171.169 8.66808C170.016 8.66808 169.314 7.71586 169.314 6.56354C169.314 4.70972 170.668 2.85589 172.221 2.85589C173.323 2.85589 174.075 3.75749 174.075 5.01025V5.06008Z" fill="white"/>
<path d="M191.261 15.3827C191.261 16.6354 190.309 17.7379 188.756 17.7379C187.954 17.7379 187.203 17.3875 186.902 16.535C186.652 15.8335 186.652 15.332 186.501 14.6313C186.351 13.8294 186.201 13.2789 185.298 13.2789C183.895 13.2789 181.941 15.0821 180.437 17.6881C178.734 20.3937 177.481 24.2018 177.481 28.0099C177.481 31.1165 178.884 33.0201 181.239 33.0201C183.294 33.0201 185.348 31.1157 186.751 29.0617C187.903 27.5085 188.405 26.2557 188.906 26.2059C189.156 26.2059 189.357 26.3561 189.357 26.7571C189.357 27.2585 188.855 28.3104 188.305 29.3125C186.651 32.1185 183.394 35.876 179.185 35.876C175.177 35.876 172.873 32.7694 172.873 27.7584C172.873 23.5493 174.526 19.5909 177.032 16.6852C179.537 13.8294 182.944 11.8751 186.451 11.8751C189.207 11.8751 191.261 13.078 191.261 15.3328V15.3827Z" fill="white"/>
<path d="M209 16.3847C209 21.7959 203.789 24.3513 196.273 25.3035C196.023 25.3533 195.772 25.4031 195.522 25.4031C195.271 26.4052 195.171 27.3574 195.171 28.3594C195.171 31.3656 196.274 33.0699 198.378 33.0699C200.533 33.0699 202.838 31.3664 204.792 28.7106C205.693 27.5077 205.794 26.9572 206.194 26.9572C206.494 26.9572 206.695 27.1075 206.695 27.4586C206.695 27.8098 206.194 28.7106 205.543 29.7134C203.789 32.3186 200.282 35.876 196.223 35.876C192.615 35.876 190.561 33.1198 190.561 28.3602C190.561 19.6423 197.776 11.8751 203.99 11.8751C207.096 11.8751 209 13.8294 209 16.3349V16.3847ZM203.639 13.0772C200.882 13.0772 197.225 17.3868 195.721 24.201C200.582 23.4995 203.438 21.0446 204.64 18.6395C205.341 17.1867 205.492 15.8335 205.492 15.0315C205.492 13.8784 204.89 13.0772 203.688 13.0772H203.639Z" fill="white"/>
</svg>
