<?xml version="1.0" encoding="UTF-8"?>
<svg id="a" data-name="Layer 1" xmlns="http://www.w3.org/2000/svg" width="312.034" height="95.232" viewBox="0 0 312.034 95.232">
  <path d="M24.013,41.755c0-5.322,4.625-8.046,10.073-8.046,2.027,0,4.308.38,5.512,1.014.317.19.443.633.507,1.521.063.57.063,1.267.063,2.217v1.647c-.063,1.014-.19,1.584-.76,1.584-.824,0-.95-1.204-1.964-3.357-.76-1.647-1.837-2.915-3.865-2.915-2.471,0-4.435,1.71-4.435,4.055,0,3.041,3.041,4.498,6.208,6.335,3.104,1.838,6.335,4.055,6.335,8.616,0,6.146-4.941,9.44-10.897,9.44-1.901,0-3.738-.317-5.005-.761-.444-.127-.887-.253-1.204-.507-.317-.19-.57-.507-.634-1.773-.063-.888-.063-2.091-.063-3.738,0-2.534.19-3.231.824-3.231.887,0,.95,1.014,1.901,3.675.95,2.471,2.407,4.562,5.005,4.562,2.851,0,4.878-1.9,4.878-4.752,0-3.737-2.978-5.385-5.892-7.158-3.168-1.774-6.589-3.802-6.589-8.363v-.063Z" fill="#231f20"/>
  <path d="M51.382,56.897c0,2.471.697,3.548,2.217,3.548,1.204,0,1.964-.823,2.471-1.584.57-.76.95-1.521,1.457-1.521.38,0,.634.19.634.634,0,.95-1.71,5.893-6.652,5.893-1.837,0-3.231-.507-4.181-1.521-1.014-1.141-1.394-2.661-1.394-5.068v-19.514c0-.697-.316-.95-.76-1.014-.443-.063-1.014-.063-1.521-.063-.57,0-1.077-.063-1.077-.76,0-.443.38-.887,1.204-1.647,1.964-1.521,3.611-3.231,5.765-7.033.57-1.077.76-1.457,1.204-1.457s.634.253.634,1.331v6.019c0,.95.317,1.331,1.267,1.331h3.421c1.077,0,1.331.253,1.331,1.14,0,1.014-.253,1.331-1.457,1.331-1.077,0-2.217-.063-3.294-.063-1.014,0-1.267.253-1.267,1.394v18.626Z" fill="#231f20"/>
  <path d="M61.837,41.502c0-2.027-.443-2.534-2.408-2.851-.76-.126-1.077-.316-1.077-.76,0-.57.57-.824,2.027-1.267,2.027-.57,3.801-1.521,5.131-2.281.634-.38,1.014-.633,1.268-.633.38,0,.507.253.507.95v23.378c0,2.154.063,3.104,2.217,3.484,1.14.254,1.583.38,1.583,1.014,0,.57-.253.761-1.014.761-1.33,0-2.724-.254-5.512-.254-3.041,0-4.371.254-5.575.254-.507,0-.95-.254-.95-.761,0-.634.443-.823,1.267-1.014,2.281-.316,2.534-.76,2.534-3.294v-16.726ZM64.561,29.718c-1.647,0-3.167-1.331-3.167-3.738,0-2.344,1.394-3.801,3.231-3.801,1.774,0,3.168,1.394,3.168,3.738,0,2.471-1.394,3.802-3.168,3.802h-.063Z" fill="#231f20"/>
  <path d="M75.839,25.347c0-1.837-.254-2.217-1.964-2.408-1.077-.253-1.457-.316-1.457-.887,0-.507.38-.697,1.267-.95,2.534-.697,4.372-1.331,5.575-1.964.824-.38,1.267-.633,1.584-.633.38,0,.507.316.507,1.267v39.027c0,1.9.507,2.28,2.661,2.724.697.19,1.331.317,1.331.95,0,.57-.443.824-1.014.824-.824,0-1.837-.254-5.639-.254-3.611,0-4.688.254-5.575.254-.443,0-1.077-.19-1.077-.824,0-.57.697-.887,1.268-.95,2.28-.253,2.534-1.014,2.534-3.168V25.347Z" fill="#231f20"/>
  <path d="M89.967,25.347c0-1.837-.253-2.217-1.964-2.408-1.077-.253-1.457-.316-1.457-.887,0-.507.38-.697,1.267-.95,2.534-.697,4.372-1.331,5.575-1.964.824-.38,1.267-.633,1.584-.633.38,0,.507.316.507,1.267v39.027c0,1.9.507,2.28,2.661,2.724.697.19,1.331.317,1.331.95,0,.57-.443.824-1.014.824-.824,0-1.837-.254-5.639-.254-3.611,0-4.688.254-5.575.254-.443,0-1.077-.19-1.077-.824,0-.57.697-.887,1.267-.95,2.281-.253,2.534-1.014,2.534-3.168V25.347Z" fill="#231f20"/>
  <path d="M106.947,59.115c0,2.154-1.204,4.562-3.548,4.562-1.647,0-2.597-1.268-2.597-2.978,0-2.154,1.14-4.625,3.548-4.625,1.583,0,2.597,1.267,2.597,2.978v.063Z" fill="#231f20"/>
  <path d="M139.385,42.199c0,4.879-2.154,10.327-5.321,14.382-3.168,4.055-7.476,6.842-11.911,6.842-1.837,0-3.548-.443-4.814-1.521-.697,2.154-1.394,4.688-1.901,6.716-.507,1.964-.95,3.675-.95,4.309,0,1.33.95,1.71,2.027,1.9,1.331.253,2.788.253,2.788,1.077,0,.57-.317.76-1.331.76-.887,0-2.027-.063-3.231-.126-1.141-.063-2.344-.127-3.484-.127-2.534,0-5.322.316-6.843.316-.823,0-1.14-.189-1.14-.696,0-.761.633-.951,2.154-1.077,2.471-.19,2.788-.761,3.928-4.625l9.883-32.691c.127-.38.127-.57-.507-.38-2.091.76-3.548,1.584-4.182,1.584-.316,0-.507-.127-.507-.444,0-.443.57-.887,1.268-1.331,1.14-.633,2.724-1.267,4.118-1.773.38-.127.507-.317.634-.697l2.027-6.398c.126-.57.38-.761.887-.887.507-.063,1.204-.063,2.027-.063h1.837c.38,0,.507.253.507.507,0,.127-.127.507-.19.951-.38,1.33-1.077,3.611-1.458,5.195.824-.19,1.584-.253,2.344-.317.824-.063,1.584-.063,2.344-.063,5.195,0,8.996,2.598,8.996,8.616v.063ZM128.551,35.42c-1.457,0-2.661.253-3.421.507-.507,1.647-1.014,3.231-1.458,4.688-1.964,6.652-3.231,10.897-4.118,13.812-.76,2.661-1.014,3.738-1.014,4.688,0,1.964,1.521,2.787,3.167,2.787,3.041,0,5.956-3.041,8.109-6.969,2.218-4.182,3.865-9.82,3.865-14.255,0-3.928-1.901-5.258-5.068-5.258h-.063Z" fill="#231f20"/>
  <path d="M163.841,37.257c0,3.484-2.091,6.208-4.055,6.208-.824,0-1.394-.317-1.521-1.14-.254-1.141.316-1.774.316-2.915-.063-.76-.19-1.077-.76-1.077-.887,0-2.851,2.851-4.815,6.779-1.9,3.674-4.688,10.327-6.525,15.902-.697,1.838-.697,2.027-2.914,2.027-2.281,0-2.725,0-2.725-.443,0-.316.19-.95.38-1.773,1.71-5.893,3.484-12.354,5.068-18.31.253-1.014.76-2.851.76-3.674,0-.507-.127-.887-.634-.887-.823,0-1.964,1.204-3.231,3.167-.697,1.141-1.014,1.901-1.331,2.471-.253.57-.443.887-.887.887-.38,0-.634-.253-.634-.633,0-.634,1.267-3.168,2.788-5.322,1.647-2.281,4.055-4.625,6.335-4.625,1.837,0,2.788,1.204,2.788,3.167,0,1.711-.95,5.005-2.471,10.897l.126.127c3.928-8.553,7.603-14.445,11.214-14.445,1.901,0,2.725,1.457,2.725,3.548v.063Z" fill="#231f20"/>
  <path d="M159.153,57.847c0-5.385,2.978-11.403,6.652-15.902,3.864-4.562,8.679-7.856,12.797-7.856,2.978,0,4.055,1.584,4.372,1.584.253,0,.57-.95.823-1.521.254-.57.57-.697,1.33-.76h2.725c.57,0,1.014.126,1.014.697,0,.317-.19.95-.38,1.457-1.838,5.829-3.865,11.975-5.829,17.866-.887,2.788-1.077,3.802-1.077,4.435s.317.888.697.888c.761,0,2.154-1.521,3.864-4.245,1.331-2.027,1.331-2.725,1.901-2.725.38,0,.57.19.57.57,0,1.077-1.711,4.055-3.611,6.463-2.027,2.534-4.879,5.068-7.35,5.068-1.647,0-2.154-1.077-2.154-2.408,0-1.014.254-2.217.697-3.611.634-2.407,1.584-5.321,2.725-8.869l-.127-.063c-2.598,4.182-9.694,14.952-15.206,14.952-3.231,0-4.435-2.472-4.435-5.956v-.063ZM182.088,38.335c0-1.647-1.14-2.534-2.724-2.534-2.978,0-6.462,3.421-9.25,7.792-2.914,4.751-5.131,9.947-5.131,12.988,0,1.457.633,2.598,1.964,2.598,2.344,0,6.272-4.498,9.25-8.87,2.914-4.244,5.892-9.693,5.892-11.911v-.063Z" fill="#231f20"/>
  <path d="M213.259,37.954c0,1.584-1.203,2.978-3.167,2.978-1.014,0-1.964-.443-2.345-1.521-.316-.887-.316-1.521-.507-2.407-.189-1.014-.38-1.71-1.521-1.71-1.773,0-4.244,2.28-6.146,5.575-2.153,3.421-3.737,8.236-3.737,13.051,0,3.928,1.773,6.336,4.751,6.336,2.598,0,5.195-2.408,6.97-5.005,1.457-1.965,2.091-3.548,2.724-3.611.317,0,.57.189.57.696,0,.634-.634,1.964-1.33,3.231-2.091,3.548-6.209,8.3-11.53,8.3-5.068,0-7.983-3.929-7.983-10.264,0-5.322,2.091-10.327,5.259-14.002,3.168-3.611,7.476-6.082,11.91-6.082,3.485,0,6.082,1.521,6.082,4.372v.063Z" fill="#231f20"/>
  <path d="M212.184,60.699c0-1.521.507-3.611,1.521-7.032,1.204-3.865,3.294-10.264,5.575-17.233h-3.738c-.38,0-.57-.126-.507-.443.063-.38.19-.76.317-1.077.126-.317.316-.38.696-.38h3.865l2.66-8.172c.254-.634.381-.824,1.077-.951.444-.063,1.077-.063,1.647-.063h1.838c.696,0,.887.126.887.443s-.19.887-.57,2.091c-.443,1.583-1.204,3.991-2.027,6.652h4.625c.443,0,.57.063.507.444-.063.317-.19.633-.317,1.014-.062.38-.316.443-.696.443h-4.752c-2.28,7.413-4.055,12.481-5.259,16.156-1.076,3.104-1.583,4.625-1.583,5.512,0,.634.38,1.014.823,1.014.823,0,1.964-1.33,3.484-3.295,1.9-2.471,2.091-3.864,2.788-3.864.316,0,.57.254.57.634,0,.634-1.014,2.471-2.281,4.371-2.091,2.978-5.575,6.716-8.553,6.716-1.774,0-2.598-1.077-2.598-2.914v-.063Z" fill="#231f20"/>
  <path d="M240.883,36.307c0,.95-.507,3.041-1.203,5.068-1.521,4.435-3.168,9.06-4.752,13.494-.507,1.584-.823,2.534-.823,3.168,0,.443.253.823.76.823.887,0,2.091-1.33,4.055-4.562,1.014-1.71,1.141-2.597,1.774-2.597.38,0,.57.189.57.569,0,.697-1.077,2.852-2.345,4.815-1.964,3.041-5.132,6.589-8.109,6.589-1.773,0-2.471-1.33-2.471-2.978,0-1.457.57-3.484,1.394-5.829,1.331-3.928,2.725-7.919,4.055-11.657.888-2.471,1.268-3.611,1.268-4.371,0-.507-.19-.887-.697-.887-.76,0-1.584.824-2.978,2.661-2.217,2.851-2.28,3.865-2.978,3.865-.316,0-.507-.126-.507-.507,0-.697,1.33-3.041,2.787-5.005,2.027-2.598,5.006-5.449,7.666-5.449,1.584,0,2.534.887,2.534,2.725v.063ZM243.988,24.903c0,2.091-1.584,4.562-3.674,4.562-1.458,0-2.345-1.204-2.345-2.661,0-2.344,1.711-4.688,3.675-4.688,1.394,0,2.344,1.14,2.344,2.724v.063Z" fill="#231f20"/>
  <path d="M265.719,37.954c0,1.584-1.204,2.978-3.168,2.978-1.014,0-1.964-.443-2.344-1.521-.316-.887-.316-1.521-.507-2.407-.19-1.014-.38-1.71-1.521-1.71-1.774,0-4.245,2.28-6.146,5.575-2.154,3.421-3.738,8.236-3.738,13.051,0,3.928,1.774,6.336,4.752,6.336,2.598,0,5.195-2.408,6.969-5.005,1.457-1.965,2.091-3.548,2.725-3.611.316,0,.57.189.57.696,0,.634-.634,1.964-1.33,3.231-2.091,3.548-6.209,8.3-11.531,8.3-5.068,0-7.982-3.929-7.982-10.264,0-5.322,2.091-10.327,5.259-14.002,3.167-3.611,7.476-6.082,11.91-6.082,3.484,0,6.082,1.521,6.082,4.372v.063Z" fill="#231f20"/>
  <path d="M288.148,39.221c0,6.843-6.589,10.073-16.092,11.277-.316.063-.634.127-.95.127-.317,1.267-.443,2.471-.443,3.737,0,3.802,1.394,5.956,4.055,5.956,2.724,0,5.639-2.154,8.109-5.513,1.14-1.521,1.267-2.217,1.773-2.217.38,0,.634.189.634.634s-.634,1.583-1.457,2.851c-2.218,3.294-6.652,7.793-11.784,7.793-4.562,0-7.159-3.485-7.159-9.504,0-11.023,9.123-20.844,16.979-20.844,3.928,0,6.335,2.471,6.335,5.639v.063ZM281.37,35.04c-3.485,0-8.109,5.449-10.011,14.065,6.146-.888,9.757-3.992,11.277-7.033.887-1.837,1.077-3.548,1.077-4.562,0-1.458-.761-2.471-2.28-2.471h-.063Z" fill="#231f20"/>
</svg>