<svg width="71" height="82" viewBox="0 0 71 82" fill="none" xmlns="http://www.w3.org/2000/svg">
<path d="M50.3263 79.1899C44.9697 79.5095 39.2132 77.5908 34.2561 75.432C36.8945 72.7937 38.8132 70.0754 40.8122 66.9572C44.9697 67.7567 49.607 66.1577 51.6856 62.4001C52.0852 61.6805 52.4052 60.9609 52.3253 60.1614C52.1654 59.202 51.4458 58.7222 50.5664 58.7222C49.4472 58.7222 48.8075 59.5217 48.5677 60.561L48.2481 62.16C48.0083 63.1993 47.4485 64.1587 46.5691 64.7984C44.97 65.8377 43.1312 66.1577 41.3723 65.8377C42.8915 62.8793 44.0906 60.0811 44.97 57.1228L47.2088 50.4069C48.648 46.2494 50.5667 42.0919 53.5251 38.9737C60.1611 43.1312 63.1194 49.6873 63.6789 57.3625C64.0784 63.3588 62.8793 69.8349 59.1218 74.4723C56.963 77.3504 53.7652 78.9494 50.327 79.1895L50.3263 79.1899ZM32.3371 60.2413C30.2582 57.203 28.6594 52.0862 30.2582 48.8881C30.5778 48.3283 30.9778 47.7689 31.9371 47.7689C32.8965 47.7689 33.8559 48.5684 34.2558 49.6876L34.7357 51.0469L35.6151 49.6876C36.0147 49.1278 36.4945 48.4885 37.0543 48.2484C37.8538 47.8488 38.8931 48.0886 39.2132 49.0479C39.7729 50.3273 38.8935 52.4858 38.2538 53.7652C36.7346 56.4035 34.7357 58.5623 32.3371 60.2413ZM37.1342 64.7188C35.6151 63.7594 34.2561 62.7202 33.1366 61.2809C34.8156 60.0016 36.3347 58.6426 37.6937 57.0435C39.9324 54.8048 42.5707 51.4468 42.011 48.2487C41.6114 46.8894 40.6517 45.9301 39.2128 45.8502C38.0137 45.7702 36.8142 46.2497 36.0147 47.2095L35.1352 48.4086C34.9754 47.5291 34.6554 46.6497 34.096 46.01C33.1366 44.8908 31.6175 44.6507 30.3381 45.1305C27.7797 46.1698 26.8203 49.288 27.2199 52.0862C27.6997 55.3642 28.9788 58.4025 30.9778 61.0408C28.1796 62.7997 24.9815 63.1197 22.4231 60.9609C21.0638 59.7618 19.9446 58.1627 19.3848 56.0039C18.5853 53.1258 18.825 50.2474 19.6245 47.5291C20.4241 44.651 23.1423 41.053 25.3011 39.2941C28.4193 36.7357 31.4573 35.5362 35.6147 35.1366C42.6503 34.4969 47.7675 35.8562 51.3652 37.695C49.3666 39.4539 47.7675 41.4529 46.568 43.6913L44.4092 48.0086L41.291 56.0838C40.0919 59.0422 38.8125 61.9203 37.1335 64.7185L37.1342 64.7188ZM15.4674 79.43C14.9076 79.1902 14.588 78.7104 14.4281 78.3108C14.3482 77.751 14.5081 77.1117 14.908 76.7117C17.4664 74.473 22.9033 75.8323 26.1813 76.9515C23.2229 78.9501 18.7454 80.6291 15.4674 79.43ZM19.4651 81.5085C23.3029 81.4286 26.9805 80.3893 30.2585 78.3903L34.4959 79.9095C42.2511 82.7077 51.2856 83.1076 58.4814 78.5502C68.9552 71.5945 71.5136 57.3629 65.1174 46.6497C62.8786 42.732 59.3608 39.6141 55.4431 37.2954C57.0422 35.8562 58.881 34.6571 61.0398 34.2572C61.4394 34.1773 62.2389 34.1773 62.479 34.4969C63.0388 35.2165 60.1604 36.0161 61.0398 37.9348C61.6795 39.374 64.6375 39.374 66.3165 37.4549C66.9562 36.5755 67.2758 35.696 66.7963 34.4966C66.4767 33.697 65.7571 33.1373 64.5576 32.8975C60.9599 32.1779 56.4824 34.0167 53.2843 36.1755C49.2067 34.4966 43.0506 32.4979 35.1352 32.9774C27.6198 33.4573 22.5829 36.7353 19.7045 39.6933C18.4251 41.1326 16.1867 44.0106 15.2273 47.2887C14.4278 50.247 14.3479 53.8447 15.3871 57.1228C16.8264 61.52 21.4633 64.7181 26.1806 64.2386C28.3394 63.9988 30.1782 63.3591 31.8572 62.1597C33.2165 63.519 34.7353 64.7181 36.5745 65.6775C34.6557 68.6358 32.5768 71.434 30.0184 73.9924C25.6212 72.5532 20.9838 71.8336 16.5067 73.4326C15.6272 73.7523 14.7478 74.2322 14.0282 74.9518C12.6689 75.9911 12.2693 77.9101 13.1487 79.349C14.1081 81.1878 17.3062 81.5878 19.4651 81.5078V81.5085Z" fill="#333333"/>
<path d="M69.29 2.96223C68.2257 2.04898 66.933 1.44062 65.4878 1.1368C59.7844 -0.307705 53.3202 0.984707 48.8336 4.33104C39.7071 1.13644 36.4368 0.300302 32.1783 0.0721676C24.0412 -0.460147 16.5124 1.97294 11.5694 6.68878C9.51587 8.6656 7.99497 10.7192 6.92999 13.0002C4.19273 19.0084 5.71363 25.7768 10.3524 28.3619C13.1664 29.9596 17.8051 29.6554 21.2275 27.6015C22.3689 28.6668 23.205 29.1991 24.3457 29.6551C27.3118 31.0235 30.8102 30.2634 33.0909 27.7536C34.4604 26.157 34.6885 24.1791 33.6239 23.5711C32.8627 23.2669 31.7984 23.5711 31.2661 24.1795C30.8859 24.7118 30.5817 25.3208 30.5057 25.9292C30.2775 27.7539 28.8323 28.9714 27.0073 28.9714C25.4096 28.9714 23.737 28.2102 22.4446 26.8417C24.5735 25.3212 26.3232 23.8756 27.8438 22.203C30.6578 18.9327 31.8741 16.1187 31.4182 13.8377C31.1901 12.6203 30.2019 11.7081 28.9084 11.48C27.0076 11.1758 25.2579 12.2404 24.1176 14.4461C23.8134 12.8484 23.129 11.7841 22.14 11.2518C20.2393 10.1876 17.8055 10.9476 16.6648 13.0005C16.0564 14.37 15.8283 16.0427 16.0564 17.8681C16.6648 21.1384 18.0333 24.0274 20.315 26.6133C17.0447 28.3619 13.3945 28.0578 11.4937 25.8528C9.66832 23.8753 8.98391 20.7571 9.66831 17.1826C10.8847 10.0348 16.3606 4.25464 23.5096 2.50525C27.9202 1.44098 32.4829 2.04898 38.7953 4.48277L45.6397 7.37283C43.5861 9.80592 42.1413 12.5439 40.62 16.9545C39.4036 20.9849 38.263 25.0163 37.0466 29.047C36.5896 30.5676 34.5368 35.4345 32.6349 37.6405C30.5821 39.9982 27.8441 42.8115 24.2696 44.181C21.5317 45.0936 18.4895 45.2453 16.2085 45.2453C14.0029 45.2453 11.95 44.7891 10.1242 44.105C6.47372 42.6594 4.19308 39.3135 5.40945 35.4348C5.71363 34.5983 5.71363 33.6861 5.56154 32.7736C5.18131 31.328 3.73681 30.5679 2.29125 31.0239C-0.522762 31.8604 -0.446718 35.8147 0.922796 38.4006C3.81286 43.9526 9.36414 46.4617 15.6002 46.7659C19.6306 46.9947 24.7256 46.0815 28.3761 44.5609C30.7338 43.6484 33.6239 41.899 35.9809 39.9222C38.0345 38.2485 39.7075 36.1196 40.6968 33.8379C41.4572 32.2413 41.9892 30.1874 42.6736 26.0809L43.7379 19.9966C45.0313 12.8481 45.7914 10.6431 47.8443 8.13328C51.7229 9.50174 55.4491 10.2629 59.4806 10.415C63.8151 10.6431 67.7698 9.57778 69.5185 7.75306C70.888 6.23146 70.7359 4.25464 69.2904 2.96223H69.29ZM19.0982 14.5214C19.4785 13.837 20.0108 13.4561 20.6948 13.4561C22.9765 13.2279 23.6609 16.7264 23.8891 16.7264C24.2693 16.8785 25.0294 13.5321 27.2354 13.6842C29.2122 13.761 29.0601 16.5743 28.1479 18.7039C26.8555 21.5179 24.3453 24.1791 21.5313 26.0045C19.2503 23.1145 17.3489 17.7153 19.0982 14.5211V14.5214ZM68.0736 6.23146C66.476 7.60097 63.2068 7.60097 61.0011 7.37283C57.6548 7.06865 54.3845 6.23146 51.0385 5.09113C55.1449 2.12503 61.0772 1.28853 65.7919 2.73409C66.7812 2.96223 67.5417 3.4185 68.2257 4.0265C68.9101 4.71091 68.8341 5.69914 68.0736 6.23146Z" fill="#333333"/>
</svg>
